<svg xmlns="http://www.w3.org/2000/svg" viewBox="0 0 150.14 125.21"><defs><style>.cls-1{fill:#fff;}</style></defs><g id="Livello_2" data-name="Livello 2"><g id="Livello_1-2" data-name="Livello 1"><path class="cls-1" d="M64.77,125.21c-1.17,0-2,0-2.45-.07A62.57,62.57,0,1,1,104.8,16.4L96,26a49.57,49.57,0,1,0-33.46,86.15l.61,0c2,.17,50.87,3.45,60.38-68.54l12.89,1.7c-3.19,24.16-12.89,56.21-41,71.74A64.94,64.94,0,0,1,64.77,125.21Z"/><polygon class="cls-1" points="139.89 60.4 129.38 46.92 116.52 57.22 108.39 47.06 131.55 28.54 150.14 52.42 139.89 60.4"/><path class="cls-1" d="M27.6,106.9l-9.18-9.2A49.34,49.34,0,0,0,33,62.57,49.32,49.32,0,0,0,18.42,27.44l9.18-9.2A62.2,62.2,0,0,1,46,62.57,62.22,62.22,0,0,1,27.6,106.9Z"/><path class="cls-1" d="M96.33,109.47A62.67,62.67,0,0,1,75.2,62.57C75.2,43.07,87,23.63,98.72,13l8.73,9.63C98.18,31.05,88.2,47.13,88.2,62.57a49.66,49.66,0,0,0,16.74,37.16Z"/><path class="cls-1" d="M103.78,17.51S106.52,20.24,107,21l-.62.56-5.52-3.05Z"/><path class="cls-1" d="M104,35.32c-4.1-6.65-7.86-9.26-7.91-9.3l8.72-9.65a95,95,0,0,1,10.12,11.9Z"/></g></g></svg>