<svg xmlns="http://www.w3.org/2000/svg" viewBox="0 0 150.14 125.21"><defs><style>.cls-1{fill:#a42f2c;}</style></defs><g id="Livello_2" data-name="Livello 2"><g id="Livello_1-2" data-name="Livello 1"><path class="cls-1" d="M131.55,28.54,108.39,47.06l8.13,10.15,5.55-4.44c-4.14,21.12-12,34.76-20.6,43.57A49.65,49.65,0,0,1,88.2,62.57c0-11.45,5.49-23.25,12.11-32a56.19,56.19,0,0,1,5,6.83l11.07-6.82A71.43,71.43,0,0,0,104.8,16.4s0,0,0,0A62.57,62.57,0,1,0,62.32,125.13c.45,0,1.28.08,2.45.08a64.94,64.94,0,0,0,30.72-8.14c24.76-13.7,35.23-40.26,39.53-62.91l4.87,6.24,10.25-8ZM13,62.57A49.26,49.26,0,0,1,23,32.73,49.19,49.19,0,0,1,33,62.57,49.24,49.24,0,0,1,23,92.41,49.28,49.28,0,0,1,13,62.57Zm50.18,49.59-.61,0a49.28,49.28,0,0,1-30.34-10.4A62.12,62.12,0,0,0,46,62.57,62.1,62.1,0,0,0,32.23,23.39a49.55,49.55,0,0,1,58.46-1.65C82.15,32.68,75.2,47.61,75.2,62.57A62.62,62.62,0,0,0,91.32,104.5,49.36,49.36,0,0,1,63.18,112.16Z"/></g></g></svg>