<svg xmlns="http://www.w3.org/2000/svg" viewBox="0 0 398.88 134.61"><defs><style>.cls-1{fill:#a42f2c;}</style></defs><g id="Livello_2" data-name="Livello 2"><g id="Livello_1-2" data-name="Livello 1"><path d="M203.81,11.07a8.79,8.79,0,0,1-2.3,4,11.13,11.13,0,0,1-4.13,2.73A7.72,7.72,0,0,1,202,21.15a7,7,0,0,1,.81,5.55A14,14,0,0,1,197,35a19,19,0,0,1-11.27,3.29H167.91a.91.91,0,0,1-.72-.25.68.68,0,0,1-.13-.68l8.43-35.09a1.12,1.12,0,0,1,1.23-.92h16.09c3.72,0,6.64.93,8.77,2.81A6.57,6.57,0,0,1,203.81,11.07Zm-10.15,15.1a2.75,2.75,0,0,0-.88-3.08A6.3,6.3,0,0,0,188.87,22h-8.81l-2.13,8.86h8.83a7.61,7.61,0,0,0,4.42-1.37A5.69,5.69,0,0,0,193.66,26.17Zm1-13.89a2.42,2.42,0,0,0-.7-2.47,4.08,4.08,0,0,0-2.94-1h-7.8l-1.58,6.64h7.82a6.74,6.74,0,0,0,3.41-.84A3.5,3.5,0,0,0,194.67,12.28Z"/><path d="M237.84,13.57c.64,0,.89.29.74.88L236.06,25.1l0,0L235,29.62l-1.86,7.86a1.12,1.12,0,0,1-1.2.87h-3.75a1,1,0,0,1-.91-.56L226.71,35a13.59,13.59,0,0,1-9.63,3.92,10.69,10.69,0,0,1-7.6-2.91,9.21,9.21,0,0,1-3.1-7,15.15,15.15,0,0,1,2.2-7.9A17,17,0,0,1,223.1,13a10.54,10.54,0,0,1,4.77,1,7.77,7.77,0,0,1,3.19,2.92l1.86-2.77a1.53,1.53,0,0,1,1.17-.56Zm-17.7,18.07a8.28,8.28,0,0,0,5.47-2.07,6.14,6.14,0,0,0,2.47-4.81,4.05,4.05,0,0,0-1.44-3.22A5.39,5.39,0,0,0,223,20.28a8.11,8.11,0,0,0-5.47,2.12,6.24,6.24,0,0,0-2.44,4.81,4.07,4.07,0,0,0,1.42,3.19A5.37,5.37,0,0,0,220.14,31.64Z"/><path d="M254.34,19.7a5.2,5.2,0,0,0-2.16.36c-.51.25-.77.57-.77,1a1.42,1.42,0,0,0,.6,1.13,9.92,9.92,0,0,0,2.17,1.08l1.36.51a29.41,29.41,0,0,1,2.94,1.29,14.48,14.48,0,0,1,2.25,1.42,5.4,5.4,0,0,1,1.57,1.87,5.3,5.3,0,0,1,.52,2.38,7.13,7.13,0,0,1-.38,2.28,7.24,7.24,0,0,1-1.27,2.21A9,9,0,0,1,259,37.12a11.05,11.05,0,0,1-3.24,1.32,17.58,17.58,0,0,1-4.31.5,18.79,18.79,0,0,1-6.72-1.2A18.27,18.27,0,0,1,239.65,35c-.49-.39-.41-.94.24-1.66L243,30c.49-.5,1.18-.44,2.05.17a9.89,9.89,0,0,0,3.09,1.42,12.83,12.83,0,0,0,3.59.57,5.61,5.61,0,0,0,2.06-.32q.84-.33.84-1a1.32,1.32,0,0,0-.7-1.12,22.05,22.05,0,0,0-2.64-1.36l-.3-.13-2-.92a11.52,11.52,0,0,1-4-2.63A5.24,5.24,0,0,1,243.48,21a7.62,7.62,0,0,1,.33-2.23A6.74,6.74,0,0,1,245,16.61a8.24,8.24,0,0,1,2-1.87,9.9,9.9,0,0,1,3.13-1.29,17.43,17.43,0,0,1,4.31-.49,16.6,16.6,0,0,1,9.85,3.14,1.32,1.32,0,0,1,.49.72.69.69,0,0,1-.09.54,7.86,7.86,0,0,1-.62.73l-2.82,3a1.39,1.39,0,0,1-1,.34,2.17,2.17,0,0,1-1.07-.34A8.53,8.53,0,0,0,254.34,19.7Z"/><path d="M285.39,13a12.5,12.5,0,0,1,8.27,2.62,8.38,8.38,0,0,1,3.14,6.75q0,3.57-2.05,5.25a4.34,4.34,0,0,1-2.87,1H275.73a3.59,3.59,0,0,0,1.76,2.68,7,7,0,0,0,3.83,1,9.53,9.53,0,0,0,2.66-.45,14.34,14.34,0,0,0,2.75-1.1,1.38,1.38,0,0,1,.84-.2.74.74,0,0,1,.61.42l2.22,3.74a.82.82,0,0,1,.05.73,1.21,1.21,0,0,1-.52.61,22,22,0,0,1-10.45,3,13,13,0,0,1-8.74-2.91,9.21,9.21,0,0,1-3.4-7.33,13.5,13.5,0,0,1,2.5-7.78,18,18,0,0,1,6.67-5.81A19,19,0,0,1,285.39,13Zm-1.78,6.76a7,7,0,0,0-6.37,3.63h11.35a3.7,3.7,0,0,0-1.54-2.62A5.62,5.62,0,0,0,283.61,19.72Z"/><path d="M320.41,13q5.64,0,8.5,3.7c1.9,2.46,2.41,5.59,1.52,9.36a16.26,16.26,0,0,1-5.95,9.24,16.22,16.22,0,0,1-10.31,3.68,10.43,10.43,0,0,1-4.81-1,7.72,7.72,0,0,1-3.2-3l-1.92,2.85a1.53,1.53,0,0,1-1.17.56h-3.75a.76.76,0,0,1-.64-.25.7.7,0,0,1-.13-.63L301.1,26.8l0,0,6.21-26A1.1,1.1,0,0,1,308.54,0H315a.75.75,0,0,1,.6.23.68.68,0,0,1,.08.62L312.1,15.64A14,14,0,0,1,320.41,13ZM322,26a4.24,4.24,0,0,0-.91-4,5.17,5.17,0,0,0-4.05-1.64,8.39,8.39,0,0,0-4.91,1.64,6.89,6.89,0,0,0-2.88,4,4.18,4.18,0,0,0,.91,4,5.27,5.27,0,0,0,4.09,1.64A8.16,8.16,0,0,0,319.15,30,7.05,7.05,0,0,0,322,26Z"/><path d="M365.12,13.57c.64,0,.88.29.74.88L363.34,25.1l0,0-1.06,4.55-1.87,7.86a1.12,1.12,0,0,1-1.2.87h-3.75a1,1,0,0,1-.9-.56L354,35a13.55,13.55,0,0,1-9.63,3.92A10.69,10.69,0,0,1,336.76,36a9.22,9.22,0,0,1-3.11-7,15.16,15.16,0,0,1,2.21-7.9,16.66,16.66,0,0,1,6.07-5.95A16.49,16.49,0,0,1,350.37,13a10.58,10.58,0,0,1,4.78,1,7.74,7.74,0,0,1,3.18,2.92l1.86-2.77a1.53,1.53,0,0,1,1.18-.56Zm-17.7,18.07a8.3,8.3,0,0,0,5.47-2.07,6.13,6.13,0,0,0,2.46-4.81,4.05,4.05,0,0,0-1.44-3.22,5.36,5.36,0,0,0-3.68-1.26,8.15,8.15,0,0,0-5.47,2.12,6.26,6.26,0,0,0-2.43,4.81,4,4,0,0,0,1.42,3.19A5.37,5.37,0,0,0,347.42,31.64Z"/><path d="M383.09,1.36c.62,0,.87.27.74.81l-8.45,35.36a1.06,1.06,0,0,1-1.15.82h-6.49c-.62,0-.85-.27-.71-.82l8.46-35.36a1,1,0,0,1,1.09-.81Z"/><path d="M398.11,1.36c.62,0,.87.27.74.81L390.4,37.53a1.06,1.06,0,0,1-1.15.82h-6.49c-.62,0-.85-.27-.71-.82l8.46-35.36a1,1,0,0,1,1.09-.81Z"/><path d="M200,74.53c.68.63.52,1.48-.48,2.53l-7.26,7.73c-1.11,1.18-2,1.37-2.84.57a9.56,9.56,0,0,0-6.77-3,14.41,14.41,0,0,0-8.89,3.13,15.5,15.5,0,0,0-5.56,7.57l-6,24.87a2.12,2.12,0,0,1-2.31,1.68H147.34c-1.29,0-1.79-.56-1.51-1.68l6.83-28.45,4-16.81A2.14,2.14,0,0,1,159,71h7.36a1.7,1.7,0,0,1,1.77,1.1l1.35,6.83a28.71,28.71,0,0,1,8.83-6.61,22.52,22.52,0,0,1,10-2.51A16.69,16.69,0,0,1,200,74.53Z"/><path d="M257.66,71c1.26,0,1.74.58,1.46,1.72l-5,20.91,0,0L252,102.5l-3.66,15.43a2.21,2.21,0,0,1-2.36,1.72h-7.36a1.9,1.9,0,0,1-1.77-1.1l-1.08-5.45a26.59,26.59,0,0,1-18.9,7.69,21,21,0,0,1-14.91-5.7,18.11,18.11,0,0,1-6.09-13.68,29.84,29.84,0,0,1,4.32-15.52,32.71,32.71,0,0,1,11.92-11.67,32.36,32.36,0,0,1,16.57-4.42,20.8,20.8,0,0,1,9.38,2,15.06,15.06,0,0,1,6.25,5.73L248,72.09a3,3,0,0,1,2.31-1.1Zm-34.75,35.48a16.32,16.32,0,0,0,10.75-4.06q4.83-4.06,4.83-9.45a8,8,0,0,0-2.82-6.33,10.59,10.59,0,0,0-7.22-2.46,16,16,0,0,0-10.75,4.15q-4.77,4.16-4.78,9.46a7.88,7.88,0,0,0,2.8,6.25A10.51,10.51,0,0,0,222.91,106.47Z"/><path d="M284.47,120.79q-10,0-16.68-5.82a18.43,18.43,0,0,1-6.69-14.47,26.44,26.44,0,0,1,2.77-11.75A31.47,31.47,0,0,1,271.34,79a36,36,0,0,1,11.3-6.64,39.29,39.29,0,0,1,14-2.48,31.13,31.13,0,0,1,9.94,1.62A18.44,18.44,0,0,1,314,75.72a1.34,1.34,0,0,1,.37,1.19,2.09,2.09,0,0,1-.64,1.2l-8.38,8.69a2.38,2.38,0,0,1-1.4.74,2,2,0,0,1-1.5-.36,13.16,13.16,0,0,0-8.92-3.06,15.71,15.71,0,0,0-10.71,4.16q-4.71,4.16-4.7,9.4a8,8,0,0,0,2.79,6.35,10.6,10.6,0,0,0,7.25,2.44,18.63,18.63,0,0,0,10.32-3.06,2.27,2.27,0,0,1,1.5-.24,1.63,1.63,0,0,1,1.18.77l4.51,8.59a1.41,1.41,0,0,1-.05,1.36,2.92,2.92,0,0,1-1,1.17,32.48,32.48,0,0,1-9.35,4.2A39,39,0,0,1,284.47,120.79Z"/><path d="M343.5,47c1.22,0,1.7.53,1.45,1.58L328.36,118a2.09,2.09,0,0,1-2.26,1.63H313.37c-1.22,0-1.68-.55-1.4-1.63l16.6-69.42A2,2,0,0,1,330.72,47Z"/><path d="M376.43,69.8q10.05,0,16.22,5.13a16.43,16.43,0,0,1,6.18,13.25q0,7-4,10.31a8.52,8.52,0,0,1-5.64,1.91H357.47a7,7,0,0,0,3.44,5.26,13.7,13.7,0,0,0,7.52,2,18.64,18.64,0,0,0,5.23-.88,28.83,28.83,0,0,0,5.4-2.17,2.53,2.53,0,0,1,1.64-.38,1.45,1.45,0,0,1,1.21.81l4.35,7.35a1.68,1.68,0,0,1,.11,1.43,2.44,2.44,0,0,1-1,1.2,43.42,43.42,0,0,1-20.52,5.87q-10.47,0-17.16-5.71A18.11,18.11,0,0,1,341,100.74a26.56,26.56,0,0,1,4.91-15.28A35.32,35.32,0,0,1,359,74.05,37.35,37.35,0,0,1,376.43,69.8Zm-3.49,13.27a13.69,13.69,0,0,0-12.52,7.12h22.29a7.3,7.3,0,0,0-3-5.14A11,11,0,0,0,372.94,83.07Z"/><path class="cls-1" d="M131.55,37.94,108.39,56.46l8.13,10.15,5.55-4.44c-4.14,21.12-12,34.76-20.6,43.57A49.65,49.65,0,0,1,88.2,72c0-11.45,5.49-23.25,12.11-32a56.19,56.19,0,0,1,5,6.83L116.37,40A71.43,71.43,0,0,0,104.8,25.8s0,0,0,0A62.57,62.57,0,1,0,62.32,134.53c.45,0,1.28.08,2.45.08a64.94,64.94,0,0,0,30.72-8.14c24.76-13.7,35.23-40.26,39.53-62.91l4.87,6.24,10.25-8ZM13,72A49.26,49.26,0,0,1,23,42.13,49.19,49.19,0,0,1,33,72a49.24,49.24,0,0,1-10,29.84A49.28,49.28,0,0,1,13,72Zm50.18,49.59-.61,0a49.28,49.28,0,0,1-30.34-10.4A62.12,62.12,0,0,0,46,72,62.1,62.1,0,0,0,32.23,32.79a49.55,49.55,0,0,1,58.46-1.65C82.15,42.08,75.2,57,75.2,72A62.62,62.62,0,0,0,91.32,113.9,49.36,49.36,0,0,1,63.18,121.56Z"/></g></g></svg>